{
  "accessors": [
    {
      "bufferView": 2,
      "componentType": 5126,
      "count": 6636,
      "max": [
        2.386032819747925,
        1.195020079612732,
        5.442731857299805
      ],
      "min": [
        -2.386032819747925,
        -1.0154097080230713,
        -0.003879547119140625
      ],
      "type": "VEC3"
    },
    {
      "bufferView": 2,
      "byteOffset": 79632,
      "componentType": 5126,
      "count": 6636,
      "max": [
        0.9993732571601868,
        0.9997029304504395,
        0.9996017217636108
      ],
      "min": [
        -0.998863697052002,
        -0.999983549118042,
        -0.9999944567680359
      ],
      "type": "VEC3"
    },
    {
      "bufferView": 3,
      "componentType": 5126,
      "count": 6636,
      "max": [
        0.9999985098838806,
        0.9993886947631836,
        0.9999462962150574,
        1.0
      ],
      "min": [
        -0.9998978972434998,
        -0.9998420476913452,
        -0.9970427751541138,
        -1.0
      ],
      "type": "VEC4"
    },
    {
      "bufferView": 1,
      "componentType": 5126,
      "count": 6636,
      "max": [
        0.993379533290863,
        0.9940725564956665
      ],
      "min": [
        0.00593178253620863,
        0.007119722664356232
      ],
      "type": "VEC2"
    },
    {
      "bufferView": 1,
      "byteOffset": 53088,
      "componentType": 5126,
      "count": 6636,
      "max": [
        0.993379533290863,
        0.9940725564956665
      ],
      "min": [
        0.00593178253620863,
        0.007119722664356232
      ],
      "type": "VEC2"
    },
    {
      "bufferView": 1,
      "byteOffset": 106176,
      "componentType": 5126,
      "count": 6636,
      "max": [
        0.993379533290863,
        0.9940725564956665
      ],
      "min": [
        0.00593178253620863,
        0.007119722664356232
      ],
      "type": "VEC2"
    },
    {
      "bufferView": 0,
      "componentType": 5125,
      "count": 31872,
      "type": "SCALAR"
    }
  ],
  "asset": {
    "extras": {
      "author": "Alex CGW (https://sketchfab.com/alex.cgwarrior)",
      "license": "CC-BY-4.0 (http://creativecommons.org/licenses/by/4.0/)",
      "source": "https://sketchfab.com/3d-models/penguini-cactusini-3d-model-roblox-r15-0e3f96a605804ae898580e3670f0f2eb",
      "title": "Penguini cactusini 3D model (Roblox R15)"
    },
    "generator": "Sketchfab-16.72.0",
    "version": "2.0"
  },
  "bufferViews": [
    {
      "buffer": 0,
      "byteLength": 127488,
      "name": "floatBufferViews",
      "target": 34963
    },
    {
      "buffer": 0,
      "byteLength": 159264,
      "byteOffset": 127488,
      "byteStride": 8,
      "name": "floatBufferViews",
      "target": 34962
    },
    {
      "buffer": 0,
      "byteLength": 159264,
      "byteOffset": 286752,
      "byteStride": 12,
      "name": "floatBufferViews",
      "target": 34962
    },
    {
      "buffer": 0,
      "byteLength": 106176,
      "byteOffset": 446016,
      "byteStride": 16,
      "name": "floatBufferViews",
      "target": 34962
    }
  ],
  "buffers": [
    {
      "byteLength": 552192,
      "uri": "scene.bin"
    }
  ],
  "images": [
    {
      "uri": "textures/Pinguin_baseColor.png"
    },
    {
      "uri": "textures/Pinguin_metallicRoughness.png"
    },
    {
      "uri": "textures/Pinguin_normal.png"
    }
  ],
  "materials": [
    {
      "doubleSided": true,
      "name": "Pinguin",
      "normalTexture": {
        "index": 2
      },
      "occlusionTexture": {
        "index": 1
      },
      "pbrMetallicRoughness": {
        "baseColorTexture": {
          "index": 0
        },
        "metallicFactor": 0.0,
        "metallicRoughnessTexture": {
          "index": 1
        }
      }
    }
  ],
  "meshes": [
    {
      "name": "Penguini_Pinguin_0",
      "primitives": [
        {
          "attributes": {
            "NORMAL": 1,
            "POSITION": 0,
            "TANGENT": 2,
            "TEXCOORD_0": 3,
            "TEXCOORD_1": 4,
            "TEXCOORD_2": 5
          },
          "indices": 6,
          "material": 0,
          "mode": 4
        }
      ]
    }
  ],
  "nodes": [
    {
      "children": [
        1
      ],
      "matrix": [
        1.0,
        0.0,
        0.0,
        0.0,
        0.0,
        2.220446049250313e-16,
        -1.0,
        0.0,
        0.0,
        1.0,
        2.220446049250313e-16,
        0.0,
        0.0,
        0.0,
        0.0,
        1.0
      ],
      "name": "Sketchfab_model"
    },
    {
      "children": [
        2
      ],
      "matrix": [
        0.009999999776482582,
        0.0,
        0.0,
        0.0,
        0.0,
        0.0,
        0.009999999776482582,
        0.0,
        0.0,
        -0.009999999776482582,
        0.0,
        0.0,
        0.0,
        0.0,
        0.0,
        1.0
      ],
      "name": "4002cd6837cc46f78cc99ab656082981.fbx"
    },
    {
      "children": [
        3
      ],
      "name": "RootNode"
    },
    {
      "children": [
        4
      ],
      "matrix": [
        100.0,
        0.0,
        0.0,
        0.0,
        0.0,
        -1.629206793918314e-05,
        -99.99999999999868,
        0.0,
        0.0,
        99.99999999999868,
        -1.629206793918314e-05,
        0.0,
        0.0,
        0.0,
        0.0,
        1.0
      ],
      "name": "Penguini"
    },
    {
      "mesh": 0,
      "name": "Penguini_Pinguin_0"
    }
  ],
  "samplers": [
    {
      "magFilter": 9729,
      "minFilter": 9987,
      "wrapS": 10497,
      "wrapT": 10497
    }
  ],
  "scene": 0,
  "scenes": [
    {
      "name": "Sketchfab_Scene",
      "nodes": [
        0
      ]
    }
  ],
  "textures": [
    {
      "sampler": 0,
      "source": 0
    },
    {
      "sampler": 0,
      "source": 1
    },
    {
      "sampler": 0,
      "source": 2
    }
  ]
}
